<svg height="512pt" viewBox="0 0 512 512" width="512pt" xmlns="http://www.w3.org/2000/svg"><path d="m512 256c0 141.386719-114.613281 256-256 256s-256-114.613281-256-256 114.613281-256 256-256 256 114.613281 256 256zm0 0" fill="#fc1f80"/><path d="m257.222656 511.984375c130.277344-.609375 237.550782-98.523437 252.882813-224.808594l-220.359375-220.359375-142.46875 150.1875 78.0625 78.058594-33.527344 151.511719zm0 0" fill="#af1154"/><path d="m320.1875 446.574219h-128.375l-31.210938-236.878907c-5.550781-42.101562 27.21875-79.472656 69.6875-79.472656h51.421876c42.46875 0 75.238281 37.371094 69.6875 79.472656zm0 0" fill="#fff"/><path d="m281.710938 130.21875h-26.757813v316.355469h65.234375l31.210938-236.878907c5.550781-42.101562-27.21875-79.476562-69.6875-79.476562zm0 0" fill="#e9edf5"/><path d="m341.863281 282.085938h-171.726562l4.007812 30.414062h163.710938zm0 0" fill="#e9edf5"/><path d="m341.863281 282.085938h-86.910156v30.414062h82.902344zm0 0" fill="#cdd2e1"/><path d="m296.640625 131.710938h-81.28125v-46.535157c0-15.421875 12.5-27.921875 27.921875-27.921875h25.4375c15.421875 0 27.921875 12.5 27.921875 27.921875zm0 0" fill="#e9edf5"/><path d="m296.640625 85.175781c0-15.421875-12.5-27.921875-27.921875-27.921875h-13.765625v74.457032h41.6875zm0 0" fill="#cdd2e1"/><path d="m351 222.332031h-190c-11.230469 0-20.332031-9.101562-20.332031-20.332031s9.101562-20.332031 20.332031-20.332031h190c11.230469 0 20.332031 9.101562 20.332031 20.332031s-9.101562 20.332031-20.332031 20.332031zm0 0" fill="#e9edf5"/><path d="m351 181.667969h-96.046875v40.667969h96.046875c11.230469 0 20.332031-9.105469 20.332031-20.335938s-9.101562-20.332031-20.332031-20.332031zm0 0" fill="#cdd2e1"/></svg>